<svg xmlns="http://www.w3.org/2000/svg" xmlns:xlink="http://www.w3.org/1999/xlink" width="362.886" height="364.326" viewBox="0 0 362.886 364.326">
  <defs>
    <clipPath id="clip-path">
      <rect id="사각형_14312" data-name="사각형 14312" width="362.886" height="364.326" fill="none"/>
    </clipPath>
    <linearGradient id="linear-gradient" x1="0.5" x2="0.5" y2="1" gradientUnits="objectBoundingBox">
      <stop offset="0" stop-color="#d8dcf1"/>
      <stop offset="1" stop-color="#fff" stop-opacity="0"/>
    </linearGradient>
  </defs>
  <g id="그룹_38240" data-name="그룹 38240" transform="translate(0 -0.003)">
    <g id="그룹_38239" data-name="그룹 38239" transform="translate(0 0.003)" clip-path="url(#clip-path)">
      <path id="패스_72491" data-name="패스 72491" d="M995.45,1268.591v64.952H923.48l-141.036-81.428c18.686-26.1,47.826-44.96,92.234-53.252Z" transform="translate(-632.563 -969.216)" fill-rule="evenodd" fill="url(#linear-gradient)" style="mix-blend-mode: multiply;isolation: isolate"/>
      <path id="패스_72492" data-name="패스 72492" d="M1215.288,545.277c-1.443-3.837-6.067-5.759-11.53-6.656v13.313l11.53,6.656Z" transform="translate(-973.173 -435.446)" fill="#807fc7" fill-rule="evenodd"/>
      <path id="패스_72493" data-name="패스 72493" d="M1393.359,486.5c-8.461,8.637-14.848,18.31-17.294,29.954-2.769,4.438-2.443,8.876,0,13.313l17.294-29.954Z" transform="translate(-1110.892 -393.307)" fill="#6764df" fill-rule="evenodd"/>
      <path id="패스_72494" data-name="패스 72494" d="M1326.765,614.149c-3.035-5.248-6.891-7.42-11.529-6.656-2.553,4.8-3.06,9.313,0,13.313l11.529,6.656Z" transform="translate(-1061.592 -491.005)" fill="#807fc7" fill-rule="evenodd"/>
      <path id="패스_72495" data-name="패스 72495" d="M1032.184,608.12a393.234,393.234,0,0,0-69.176,39.938v13.313l69.176-39.939Z" transform="translate(-778.539 -491.633)" fill="#413cad" fill-rule="evenodd"/>
      <path id="패스_72496" data-name="패스 72496" d="M914.351,549.733l69.176-39.938,11.529,6.656,17.294-29.954-51.882,9.985L972,503.138l-69.176,39.938Z" transform="translate(-729.883 -393.307)" fill="#a5a3f7" fill-rule="evenodd"/>
      <path id="패스_72497" data-name="패스 72497" d="M300.937,545.277c1.443-3.837,6.067-5.759,11.53-6.656v13.313l-11.53,6.656Z" transform="translate(-243.291 -435.446)" fill="#628be8" fill-rule="evenodd"/>
      <path id="패스_72498" data-name="패스 72498" d="M90.282,486.5c8.461,8.637,14.848,18.31,17.294,29.954,2.769,4.438,2.443,8.876,0,13.313L90.282,499.81Z" transform="translate(-72.988 -393.307)" fill="#1540db" fill-rule="evenodd"/>
      <path id="패스_72499" data-name="패스 72499" d="M180.564,614.149c3.035-5.248,6.891-7.42,11.529-6.656,2.553,4.8,3.06,9.313,0,13.313l-11.529,6.656Z" transform="translate(-145.976 -491.005)" fill="#628be8" fill-rule="evenodd"/>
      <path id="패스_72500" data-name="패스 72500" d="M240.751,608.12a393.227,393.227,0,0,1,69.176,39.938v13.313l-69.176-39.939Z" transform="translate(-194.634 -491.633)" fill="#1540db" fill-rule="evenodd"/>
      <path id="패스_72501" data-name="패스 72501" d="M188.281,549.733l-69.176-39.938-11.529,6.656L90.282,486.5l51.882,9.985-11.53,6.656,69.176,39.938Z" transform="translate(-72.988 -393.307)" fill="#dee4ff" fill-rule="evenodd"/>
      <path id="패스_72502" data-name="패스 72502" d="M393.172,802.624l-92.235-53.251V642.87c42.479,5.518,73.6,22.88,92.235,53.252,18.5,35.639,19.086,71.144,0,106.5" transform="translate(-243.291 -519.726)" fill="#d5dbfb" fill-rule="evenodd"/>
      <path id="패스_72503" data-name="패스 72503" d="M602.57,1065.787l-40.353-23.3c-2.656,4.438-3.368,8.876,0,13.313l40.353,23.3c3.649-4.437,3.592-8.875,0-13.313" transform="translate(-452.689 -842.797)" fill="#ccc" fill-rule="evenodd" opacity="0.312" style="mix-blend-mode: multiply;isolation: isolate"/>
      <path id="패스_72504" data-name="패스 72504" d="M300.937,418.125l92.235-53.252,92.235,53.252c-18.29,26.055-48.459,44.188-92.235,53.252Z" transform="translate(-243.291 -294.981)" fill="#fff" fill-rule="evenodd"/>
      <path id="패스_72505" data-name="패스 72505" d="M793.973,642.87c-6.245.057-9.916,2.43-11.529,6.656l40.353,23.3c6.082.271,9.79-2.1,11.529-6.656Z" transform="translate(-632.563 -519.726)" fill="#e6e6e6" fill-rule="evenodd" opacity="0.382" style="mix-blend-mode: multiply;isolation: isolate"/>
      <path id="패스_72506" data-name="패스 72506" d="M874.678,642.87v106.5l-92.235,53.252v-106.5Z" transform="translate(-632.563 -519.726)" fill="#628be8" fill-rule="evenodd"/>
      <path id="패스_72507" data-name="패스 72507" d="M993.1,1042.49c27.86,10.912,51.175,24.1,69.176,39.938v13.313L993.1,1055.8Z" transform="translate(-802.871 -842.797)" fill="#3a66c9" fill-rule="evenodd"/>
      <path id="패스_72508" data-name="패스 72508" d="M1294.041,1284.97c17.294-1.019,34.588,2.241,51.882,9.984v13.313l-51.882-9.984Z" transform="translate(-1046.162 -1038.682)" fill="#3a66c9" fill-rule="evenodd"/>
      <path id="패스_72509" data-name="패스 72509" d="M993.1,1014.4l69.176,39.938-11.53,6.657,51.882,9.984-17.294-29.954-11.529,6.656-69.176-39.939Z" transform="translate(-802.87 -814.704)" fill="#bcd6ff" fill-rule="evenodd"/>
      <path id="패스_72510" data-name="패스 72510" d="M779.679,225.875l-11.529,6.657c-4.648,25.806-4.382,52.478,0,79.877l11.529-6.656Z" transform="translate(-618.27 -182.608)" fill="#3a66c9" fill-rule="evenodd"/>
      <path id="패스_72511" data-name="패스 72511" d="M763.877,0l-11.53,6.656c1.564,20.283,7.764,36.547,17.294,49.923l11.53-6.656Z" transform="translate(-608.232 -0.003)" fill="#3a66c9" fill-rule="evenodd"/>
      <path id="패스_72512" data-name="패스 72512" d="M673.6,71.362l-11.53-6.657,17.294-29.954,17.294,49.923-11.529-6.656V157.9L673.6,151.24Z" transform="translate(-535.244 -28.096)" fill="#628be8" fill-rule="evenodd"/>
      <path id="패스_72513" data-name="패스 72513" d="M279.83,1042.49c-27.86,10.912-51.175,24.1-69.176,39.938v13.313L279.83,1055.8Z" transform="translate(-170.302 -842.797)" fill="#413cad" fill-rule="evenodd"/>
      <path id="패스_72514" data-name="패스 72514" d="M51.882,1284.97c-17.294-1.019-34.588,2.241-51.882,9.984v13.313l51.882-9.984Z" transform="translate(0 -1038.682)" fill="#628be8" fill-rule="evenodd"/>
      <path id="패스_72515" data-name="패스 72515" d="M109.528,1014.4l-69.176,39.938,11.53,6.657L0,1070.976l17.294-29.954,11.529,6.656L98,1007.74Z" transform="translate(0 -814.704)" fill="#c1d4ff" fill-rule="evenodd"/>
    </g>
  </g>
</svg>
